# xmcd CD database file
#
# Track frame offsets:
#	150
#	12154
#	25453
#	40240
#	52684
#	64003
#	77562
#	88059
#	99379
#	113103
#	126349
#	139108
#	153560
#	165815
#
# Disc length: 2371 seconds
#
# Revision: 0
# Processed by: cddbd v1.5.2PL0 Copyright (c) Steve Scherf et al.
# Submitted via: CDex 1.70beta2
#
DISCID=a609410e
DTITLE=Instrumental Moods - 3na Bossa
DYEAR=2008
DGENRE=Jazz
TTITLE0=Water To Drink
TTITLE1=One Note Samba
TTITLE2=Photograph
TTITLE3=The Girl From Ipanema
TTITLE4=Summer Samba
TTITLE5=Wave
TTITLE6=Copacabana
TTITLE7=Rio
TTITLE8=Somewhere in the Hills
TTITLE9=She's Carioca
TTITLE10=Quiet Nights of Quiet Stars
TTITLE11=How Insensitive
TTITLE12=Little Boat
TTITLE13=Jet Samba
EXTD=YEAR: 2008
EXTT0=
EXTT1=
EXTT2=
EXTT3=
EXTT4=
EXTT5=
EXTT6=
EXTT7=
EXTT8=
EXTT9=
EXTT10=
EXTT11=
EXTT12=
EXTT13=
PLAYORDER=
